<svg xmlns="http://www.w3.org/2000/svg" width="16" height="10"><style/><g id="Header"><g id="social_buttons"><path id="behance" d="M0 0h4.67c1.89 0 3.17.67 3.17 2.52 0 .98-.49 1.66-1.35 2.07 1.21.35 1.82 1.28 1.82 2.52 0 2.01-1.71 2.88-3.5 2.88H0V0zm1.99 4.08h2.4c.77 0 1.34-.35 1.34-1.18 0-.95-.73-1.14-1.5-1.14H1.99v2.32zm0 4.21h2.53c.86 0 1.61-.28 1.61-1.31 0-1.01-.64-1.41-1.57-1.41H1.99v2.72zm8.94-1.32c.05 1.25.67 1.63 1.76 1.63.8 0 1.44-.14 1.56-.59h1.74c-.56 1.7-1.74 2.08-3.37 2.08-2.26 0-3.66-1.56-3.66-3.78 0-2.16 1.48-3.8 3.66-3.8 2.45 0 3.63 2.25 3.49 4.46h-5.18zm3.21-1.07c-.18-1-.61-1.9-1.57-1.9-1.25 0-1.61 1.35-1.64 1.9h3.21zm.82-3.91H10V.97h4.96v1.02z" fill="#fff"/></g></g></svg>