<svg xmlns="http://www.w3.org/2000/svg" viewBox="0 0 16 16" width="16" height="16">
	<style>
		tspan { white-space:pre }
		.shp0 { fill: #ffffff } 
	</style>
	<g id="Header">
		<g id="social_buttons">
			<path id="dribbble" class="shp0" d="M7.97 0C3.55 0 -0.03 3.58 -0.03 8C-0.03 12.42 3.55 16 7.97 16C12.39 16 15.97 12.42 15.97 8C15.97 3.58 12.39 0 7.97 0ZM13.22 3.87C14.08 4.96 14.6 6.33 14.65 7.81C12.85 7.5 11.3 7.49 9.97 7.7C9.8 7.31 9.62 6.93 9.44 6.56C10.88 5.97 12.16 5.11 13.22 3.87ZM12.3 2.91C11.36 4.06 10.17 4.84 8.83 5.38C7.98 3.79 7.1 2.47 6.39 1.51C6.9 1.38 7.43 1.31 7.97 1.31C9.62 1.31 11.13 1.92 12.3 2.91ZM5.1 1.97C5.78 2.87 6.68 4.19 7.57 5.8C5.69 6.32 3.59 6.46 1.47 6.46C1.93 4.47 3.29 2.83 5.1 1.97ZM1.28 8C1.28 7.93 1.29 7.85 1.29 7.78C1.3 7.78 1.32 7.78 1.33 7.78C3.71 7.78 6.07 7.63 8.19 7C8.35 7.32 8.51 7.65 8.66 7.99C5.87 8.81 4.13 10.65 2.94 12.39C1.91 11.22 1.28 9.68 1.28 8ZM3.91 13.3C5.04 11.6 6.61 9.92 9.17 9.22C9.77 10.75 10.26 12.42 10.51 14.17C9.73 14.5 8.87 14.68 7.97 14.68C6.44 14.68 5.04 14.17 3.91 13.3ZM11.74 13.51C11.47 11.9 11.02 10.38 10.48 8.96C11.65 8.81 12.99 8.85 14.55 9.13C14.24 10.94 13.2 12.51 11.74 13.51Z" />
		</g>
	</g>
</svg>