<svg xmlns="http://www.w3.org/2000/svg" viewBox="0 0 16 15" width="16" height="15">
	<style>
		tspan { white-space:pre }
		.shp0 { fill: #ffffff } 
	</style>
	<g id="Header">
		<g id="social_buttons">
			<path id="linkedin" class="shp0" d="M1.02 14.98L4.01 14.98L4.01 4.99L1.02 4.99L1.02 14.98ZM12.69 4.65C11.23 4.65 9.93 5.18 9.01 6.35L9.01 4.96L6 4.96L6 14.98L9.01 14.98L9.01 9.56C9.01 8.42 10.06 7.3 11.37 7.3C12.69 7.3 13.01 8.42 13.01 9.54L13.01 14.98L16.01 14.98L16.01 9.31C16.01 5.38 14.14 4.65 12.69 4.65ZM2.47 -0.05C1.38 -0.05 0.51 0.74 0.51 1.71C0.51 2.68 1.38 3.47 2.47 3.47C3.55 3.47 4.42 2.68 4.42 1.71C4.42 0.74 3.55 -0.05 2.47 -0.05Z" />
		</g>
	</g>
</svg>