<svg xmlns="http://www.w3.org/2000/svg" viewBox="0 0 20 20" width="20" height="20">
	<style>
		tspan { white-space:pre }
		.shp0 { fill: #919191 } 
	</style>
	<g id="Шапка">
		<g id="Поиск">
			<path id="Shape 1 copy" class="shp0" d="M12.82 14.27C11.49 15.28 9.86 15.83 8.19 15.83C3.95 15.83 0.51 12.38 0.51 8.15C0.51 3.91 3.95 0.47 8.19 0.47C12.42 0.47 15.87 3.91 15.87 8.15C15.87 9.82 15.32 11.45 14.31 12.78L19.57 18.04L18.08 19.53L12.82 14.27ZM8.19 2C4.8 2 2.05 4.76 2.05 8.15C2.05 11.53 4.8 14.29 8.19 14.29C11.58 14.29 14.33 11.53 14.33 8.15C14.33 4.76 11.58 2 8.19 2L8.19 2Z" />
		</g>
	</g>
</svg>