<svg xmlns="http://www.w3.org/2000/svg" viewBox="0 0 13 15" width="13" height="15">
	<style>
		tspan { white-space:pre }
		.shp0 { fill: #ffffff } 
	</style>
	<g id="Подвал">
		<g id="Соцсети">
			<g id="Вк 2">
				<path id="В" class="shp0" d="M11.38 8.06C10.84 7.47 10.12 7.09 9.22 6.9L9.22 6.82C9.85 6.56 10.34 6.15 10.69 5.6C11.04 5.05 11.22 4.41 11.22 3.71C11.22 3.09 11.09 2.55 10.84 2.08C10.58 1.62 10.19 1.24 9.67 0.96C9.19 0.7 8.67 0.53 8.12 0.45C7.57 0.37 6.76 0.33 5.7 0.33L0.56 0.33L0.56 14.87L6.38 14.87C7.39 14.87 8.22 14.78 8.87 14.59C9.53 14.41 10.13 14.11 10.68 13.68C11.14 13.32 11.51 12.87 11.78 12.32C12.05 11.77 12.19 11.14 12.19 10.41C12.19 9.42 11.92 8.64 11.38 8.06ZM7.35 5.28C7.23 5.52 7.03 5.71 6.74 5.84C6.47 5.97 6.21 6.04 5.96 6.05C5.71 6.06 5.28 6.07 4.65 6.07L4.19 6.07L4.19 2.99L4.45 2.99C5.1 2.99 5.59 3 5.91 3.01C6.24 3.02 6.53 3.07 6.77 3.18C7.02 3.29 7.21 3.47 7.33 3.71C7.45 3.96 7.51 4.2 7.51 4.44C7.51 4.76 7.46 5.04 7.35 5.28ZM8.2 11.29C8.05 11.56 7.8 11.77 7.47 11.92C7.09 12.08 6.72 12.17 6.36 12.18C5.99 12.19 5.34 12.2 4.39 12.2L4.19 12.2L4.19 8.56L4.86 8.56C5.52 8.56 6.04 8.56 6.42 8.57C6.81 8.58 7.11 8.63 7.34 8.71C7.7 8.84 7.97 9.04 8.16 9.29C8.34 9.54 8.43 9.9 8.43 10.35C8.43 10.7 8.35 11.01 8.2 11.29Z" />
			</g>
		</g>
	</g>
</svg>