<svg xmlns="http://www.w3.org/2000/svg" viewBox="0 0 16 10" width="16" height="10">
	<style>
		tspan { white-space:pre }
		.shp0 { fill: #ffffff } 
	</style>
	<g id="Header">
		<g id="social_buttons">
			<path id="behance" class="shp0" d="M0 0L4.67 0C6.56 0 7.84 0.67 7.84 2.52C7.84 3.5 7.35 4.18 6.49 4.59C7.7 4.94 8.31 5.87 8.31 7.11C8.31 9.12 6.6 9.99 4.81 9.99L0 9.99L0 0ZM1.99 4.08L4.39 4.08C5.16 4.08 5.73 3.73 5.73 2.9C5.73 1.95 5 1.76 4.23 1.76L1.99 1.76L1.99 4.08ZM1.99 8.29L4.52 8.29C5.38 8.29 6.13 8.01 6.13 6.98C6.13 5.97 5.49 5.57 4.56 5.57L1.99 5.57L1.99 8.29ZM10.93 6.97C10.98 8.22 11.6 8.6 12.69 8.6C13.49 8.6 14.13 8.46 14.25 8.01L15.99 8.01C15.43 9.71 14.25 10.09 12.62 10.09C10.36 10.09 8.96 8.53 8.96 6.31C8.96 4.15 10.44 2.51 12.62 2.51C15.07 2.51 16.25 4.76 16.11 6.97L10.93 6.97ZM14.14 5.9C13.96 4.9 13.53 4 12.57 4C11.32 4 10.96 5.35 10.93 5.9L14.14 5.9ZM14.96 1.99L10 1.99L10 0.97L14.96 0.97L14.96 1.99Z" />
		</g>
	</g>
</svg>