<svg xmlns="http://www.w3.org/2000/svg" width="16" height="16"><style/><g id="Header"><g id="social_buttons"><path id="dribbble" d="M7.97 0c-4.42 0-8 3.58-8 8s3.58 8 8 8 8-3.58 8-8-3.58-8-8-8zm5.25 3.87a6.713 6.713 0 011.43 3.94c-1.8-.31-3.35-.32-4.68-.11-.17-.39-.35-.77-.53-1.14 1.44-.59 2.72-1.45 3.78-2.69zm-.92-.96c-.94 1.15-2.13 1.93-3.47 2.47a31.79 31.79 0 00-2.44-3.87c.51-.13 1.04-.2 1.58-.2 1.65 0 3.16.61 4.33 1.6zm-7.2-.94c.68.9 1.58 2.22 2.47 3.83-1.88.52-3.98.66-6.1.66A6.643 6.643 0 015.1 1.97zM1.28 8c0-.07.01-.15.01-.22h.04c2.38 0 4.74-.15 6.86-.78.16.32.32.65.47.99-2.79.82-4.53 2.66-5.72 4.4A6.632 6.632 0 011.28 8zm2.63 5.3c1.13-1.7 2.7-3.38 5.26-4.08.6 1.53 1.09 3.2 1.34 4.95-.78.33-1.64.51-2.54.51-1.53 0-2.93-.51-4.06-1.38zm7.83.21c-.27-1.61-.72-3.13-1.26-4.55 1.17-.15 2.51-.11 4.07.17a6.686 6.686 0 01-2.81 4.38z" fill="#fff"/></g></g></svg>