<svg xmlns="http://www.w3.org/2000/svg" width="15" height="16"><style/><g id="Header"><g id="social_buttons"><path id="google plus" d="M8.52 9.22c-1.63-1.16-2.24-1.71-1.2-2.63 1.05-.93 1.87-1.67 1.87-3.38C9.19 1.49 7.78.62 7.78.62S8.8.77 9.35.46c.54-.3.78-.5.78-.5h-5.2C3.88-.04.99 1.14.99 3.91c0 2.76 3 3.36 4.09 3.31-.61.75-.09 1.43.24 1.78.33.35.26.46-.13.46s-5.23.05-5.23 3.51c0 3.47 6.43 3.72 8.54 1.85 2.11-1.87 1.65-4.44.02-5.6zM5.43 6.54C2.84 6.54 1.66.48 4.71.48c2.37-.08 4.16 6.06.72 6.06zm-.31 8.48c-2.15 0-3.31-1.08-3.31-2.68 0-1.61 1.57-2.4 4.51-2.4.8.62 2.22 1.36 2.22 2.86 0 1.49-1.27 2.22-3.42 2.22zM13.01 0v1.97h1.96v1.02h-1.96v1.97H12V2.99h-2V1.97h2V0h1.01z" fill="#fff"/></g></g></svg>