<svg xmlns="http://www.w3.org/2000/svg" viewBox="0 0 15 16" width="15" height="16">
	<style>
		tspan { white-space:pre }
		.shp0 { fill: #ffffff } 
	</style>
	<g id="Header">
		<g id="social_buttons">
			<path id="google plus" class="shp0" d="M8.52 9.22C6.89 8.06 6.28 7.51 7.32 6.59C8.37 5.66 9.19 4.92 9.19 3.21C9.19 1.49 7.78 0.62 7.78 0.62C7.78 0.62 8.8 0.77 9.35 0.46C9.89 0.16 10.13 -0.04 10.13 -0.04C9.13 -0.04 5.97 -0.04 4.93 -0.04C3.88 -0.04 0.99 1.14 0.99 3.91C0.99 6.67 3.99 7.27 5.08 7.22C4.47 7.97 4.99 8.65 5.32 9C5.65 9.35 5.58 9.46 5.19 9.46C4.8 9.46 -0.04 9.51 -0.04 12.97C-0.04 16.44 6.39 16.69 8.5 14.82C10.61 12.95 10.15 10.38 8.52 9.22ZM5.43 6.54C2.84 6.54 1.66 0.48 4.71 0.48C7.08 0.4 8.87 6.54 5.43 6.54ZM5.12 15.02C2.97 15.02 1.81 13.94 1.81 12.34C1.81 10.73 3.38 9.94 6.32 9.94C7.12 10.56 8.54 11.3 8.54 12.8C8.54 14.29 7.27 15.02 5.12 15.02ZM13.01 0L13.01 1.97L14.97 1.97L14.97 2.99L13.01 2.99L13.01 4.96L12 4.96L12 2.99L10 2.99L10 1.97L12 1.97L12 0L13.01 0Z" />
		</g>
	</g>
</svg>