<svg xmlns="http://www.w3.org/2000/svg" width="17" height="13"><style/><g id="Header"><g id="social_buttons"><path id="twitter" d="M16.56 1.56c-.27.15-1.08.45-1.83.52.48-.26 1.2-1.11 1.38-1.79-.47.29-1.54.73-2.06.73a3.303 3.303 0 00-5.61 3.01C5.97 3.97 3.08 2.73 1.45.61c-1 1.73-.13 3.66 1 4.36-.38.03-1.1-.04-1.44-.37-.02 1.15.53 2.67 2.55 3.22-.39.21-1.08.15-1.38.11.11.97 1.47 2.24 2.95 2.24-.53.61-2.33 1.72-4.57 1.37C2.08 12.46 3.85 13 5.73 13c5.32 0 9.46-4.32 9.23-9.64v-.11c.49-.33 1.14-.92 1.6-1.69z" fill="#fff"/></g></g></svg>