<svg xmlns="http://www.w3.org/2000/svg" viewBox="0 0 17 13" width="17" height="13">
	<style>
		tspan { white-space:pre }
		.shp0 { fill: #ffffff } 
	</style>
	<g id="Header">
		<g id="social_buttons">
			<path id="twitter" class="shp0" d="M16.56 1.56C16.29 1.71 15.48 2.01 14.73 2.08C15.21 1.82 15.93 0.97 16.11 0.29C15.64 0.58 14.57 1.02 14.05 1.02C14.05 1.02 14.05 1.02 14.05 1.02C13.45 0.39 12.6 0 11.66 0C9.84 0 8.36 1.48 8.36 3.3C8.36 3.55 8.39 3.8 8.44 4.03L8.44 4.03C5.97 3.97 3.08 2.73 1.45 0.61C0.45 2.34 1.32 4.27 2.45 4.97C2.07 5 1.35 4.93 1.01 4.6C0.99 5.75 1.54 7.27 3.56 7.82C3.17 8.03 2.48 7.97 2.18 7.93C2.29 8.9 3.65 10.17 5.13 10.17C4.6 10.78 2.8 11.89 0.56 11.54C2.08 12.46 3.85 13 5.73 13C11.05 13 15.19 8.68 14.96 3.36C14.96 3.35 14.96 3.35 14.96 3.34C14.96 3.33 14.96 3.31 14.96 3.3C14.96 3.28 14.96 3.27 14.96 3.25C15.45 2.92 16.1 2.33 16.56 1.56Z" />
		</g>
	</g>
</svg>