<svg xmlns="http://www.w3.org/2000/svg" width="13" height="15"><style/><g id="Подвал"><g id="Соцсети"><g id="Вк 2"><path id="В" d="M11.38 8.06c-.54-.59-1.26-.97-2.16-1.16v-.08c.63-.26 1.12-.67 1.47-1.22.35-.55.53-1.19.53-1.89 0-.62-.13-1.16-.38-1.63-.26-.46-.65-.84-1.17-1.12-.48-.26-1-.43-1.55-.51C7.57.37 6.76.33 5.7.33H.56v14.54h5.82c1.01 0 1.84-.09 2.49-.28.66-.18 1.26-.48 1.81-.91.46-.36.83-.81 1.1-1.36.27-.55.41-1.18.41-1.91 0-.99-.27-1.77-.81-2.35zM7.35 5.28a1.2 1.2 0 01-.61.56c-.27.13-.53.2-.78.21-.25.01-.68.02-1.31.02h-.46V2.99h.26c.65 0 1.14.01 1.46.02.33.01.62.06.86.17.25.11.44.29.56.53.12.25.18.49.18.73a2 2 0 01-.16.84zm.85 6.01c-.15.27-.4.48-.73.63-.38.16-.75.25-1.11.26-.37.01-1.02.02-1.97.02h-.2V8.56h.67c.66 0 1.18 0 1.56.01.39.01.69.06.92.14.36.13.63.33.82.58.18.25.27.61.27 1.06 0 .35-.08.66-.23.94z" fill="#fff"/></g></g></g></svg>